# Blender v2.76 (sub 0) OBJ File: 'prism.blend'
# www.blender.org
mtllib prism.mtl
o Cube
v 1.000000 -1.000000 0.000000
v -1.000000 -1.000000 1.000000
v -1.000000 -1.000000 -1.000000
v 1.000000 1.000000 0.000001
v -1.000000 1.000000 1.000000
v -1.000000 1.000000 -1.000000
vn 0.447200 -0.000000 0.894400
vn 0.000000 -1.000000 0.000000
vn -1.000000 -0.000000 -0.000000
vn 0.447200 0.000000 -0.894400
vn 0.000000 1.000000 -0.000000
usemtl Material
s off
f 1//1 4//1 5//1 2//1
f 1//2 2//2 3//2
f 2//3 5//3 6//3 3//3
f 4//4 1//4 3//4 6//4
f 4//5 6//5 5//5
